<svg xmlns="http://www.w3.org/2000/svg" viewBox="0 0 64 64">
  <rect width="64" height="64" fill="#000"/>
  <!-- Bulb outline -->
  <path d="M32 6C20.954 6 12 14.954 12 26c0 7.5 4 14 10 18v6c0 2.2 1.8 4 4 4h12c2.2 0 4-1.8 4-4v-6c6-4 10-10.5 10-18C52 14.954 43.046 6 32 6z" 
        fill="none" 
        stroke="#9CB853" 
        stroke-width="2.5"/>
  <!-- Base ridges -->
  <path d="M24 54h16M24 58h16" stroke="#9CB853" stroke-width="2" stroke-linecap="round"/>
  <!-- Circuit traces inside bulb -->
  <circle cx="32" cy="28" r="2" fill="#9CB853"/>
  <path d="M32 30v8M32 22v-6M26 28h-4M38 28h4M28 24l-4-4M36 24l4-4M28 32l-4 4M36 32l4 4" 
        stroke="#9CB853" 
        stroke-width="1.5" 
        stroke-linecap="round"/>
  <!-- Small dots at circuit endpoints -->
  <circle cx="32" cy="16" r="1.5" fill="#9CB853"/>
  <circle cx="22" cy="28" r="1.5" fill="#9CB853"/>
  <circle cx="42" cy="28" r="1.5" fill="#9CB853"/>
  <circle cx="24" cy="20" r="1.5" fill="#9CB853"/>
  <circle cx="40" cy="20" r="1.5" fill="#9CB853"/>
  <circle cx="24" cy="36" r="1.5" fill="#9CB853"/>
  <circle cx="40" cy="36" r="1.5" fill="#9CB853"/>
</svg>
